REM MD5 c2b6eb4a24b0e0a06d1d16ea055ebfac
FILE "Soreike Flyfishing - Let's Go Flyfishing (Japan).bin" BINARY
  TRACK 01 MODE2/2352
    INDEX 01 00:00:00
  TRACK 02 AUDIO
    INDEX 00 22:00:02
    INDEX 01 22:02:02
  TRACK 03 AUDIO
    INDEX 00 23:04:22
    INDEX 01 23:06:22
  TRACK 04 AUDIO
    INDEX 00 28:34:45
    INDEX 01 28:36:45
REM LEADOUT 31:52:58
